<?xml version="1.0" encoding="UTF-8"?>
<svg width="46px" height="44px" viewBox="0 0 46 44" version="1.1" xmlns="http://www.w3.org/2000/svg" xmlns:xlink="http://www.w3.org/1999/xlink">
    <!-- Generator: Sketch 50.2 (55047) - http://www.bohemiancoding.com/sketch -->
    <title>Mask</title>
    <desc>Created with Sketch.</desc>
    <defs>
        <path d="M34,12 L23,12 L23,8 L38,8 L38,20 L20,20 L20,32 L42,32 L42,36 L16,36 L16,20 L8,20 L8,8 L20,8 L20,16 L34,16 L34,12 Z M16,12 L12,12 L12,16 L16,16 L16,12 Z M34,24 L38,24 L38,28 L34,28 L34,24 Z M4,4 L4,40 L42,40 L42,4 L4,4 Z M0,8.8817842e-16 L46,8.8817842e-16 L46,44 L0,44 L0,8.8817842e-16 Z" id="path-1"></path>
    </defs>
    <g id="Symbols" stroke="none" stroke-width="1" fill="none" fill-rule="evenodd">
        <g id="Assets/Logo/Personal-Logo">
            <g id="logo">
                <mask id="mask-2" fill="white">
                    <use xlink:href="#path-1"></use>
                </mask>
                <use id="Mask" fill="#000000" fill-rule="nonzero" xlink:href="#path-1"></use>
            </g>
        </g>
    </g>
</svg>